PathFileType	4	(X/Y/Z)	 s03c0203.trc
DataRate	CameraRate	NumFrames	NumMarkers	Units	OrigDataRate	OrigDataStartFrame	OrigNumFrames
200	200	5	50	mm	200	1001	2000
Frame#	Time	racr			lacr			c7			jug			rlel			rdr			llel			ldr			s2			lic			ric			lasi			rasi			rpsi			lpsi			rgt			lgt			rth1			rth2			rth3			rth4			rlfc			rmfc			rsh1			rsh2			rsh3			rsh4			rlmal			rcal			rtoe			rmt5			rmt1			lth1			lth2			lth4			lth3			llfc			lmfc			lsh1			lsh2			lsh3			lsh4			llmal			lcal			ltoe			lmt1			lmt5			SBIKE			LBIKE			RBIKE			
		X1	Y1	Z1	X2	Y2	Z2	X3	Y3	Z3	X4	Y4	Z4	X5	Y5	Z5	X6	Y6	Z6	X7	Y7	Z7	X8	Y8	Z8	X9	Y9	Z9	X10	Y10	Z10	X11	Y11	Z11	X12	Y12	Z12	X13	Y13	Z13	X14	Y14	Z14	X15	Y15	Z15	X16	Y16	Z16	X17	Y17	Z17	X18	Y18	Z18	X19	Y19	Z19	X20	Y20	Z20	X21	Y21	Z21	X22	Y22	Z22	X23	Y23	Z23	X24	Y24	Z24	X25	Y25	Z25	X26	Y26	Z26	X27	Y27	Z27	X28	Y28	Z28	X29	Y29	Z29	X30	Y30	Z30	X31	Y31	Z31	X32	Y32	Z32	X33	Y33	Z33	X34	Y34	Z34	X35	Y35	Z35	X36	Y36	Z36	X37	Y37	Z37	X38	Y38	Z38	X39	Y39	Z39	X40	Y40	Z40	X41	Y41	Z41	X42	Y42	Z42	X43	Y43	Z43	X44	Y44	Z44	X45	Y45	Z45	X46	Y46	Z46	X47	Y47	Z47	X48	Y48	Z48	X49	Y49	Z49	X50	Y50	Z50	
1001	5.0050	447.700478	1384.922478	-22.927782	464.240346	1434.961338	-344.412982	391.758102	1498.922295	-165.819851	403.191905	1326.894147	-190.611191	506.264042	1148.967789	110.056225	722.647304	986.926598	-2.337387	493.232799	1197.166664	-500.516482	703.119081	983.855716	-459.614641	-109.841953	1195.594258	-251.936830	68.371228	1256.943168	-419.921607	33.662610	1229.516348	-56.385217	89.410377	1179.652146	-384.982989	76.408606	1177.523726	-106.169692	-93.101976	1247.530621	-207.687430	-80.255363	1250.439786	-286.001972	10.242878	1154.287802	-49.482441	8.511146	1108.184420	-443.337027	147.061063	1084.677975	-27.278148	235.985537	1090.306567	-25.320589	314.139479	1053.778065	-23.592821	243.485277	1123.410118	-41.252634	429.981719	990.294599	-41.353323	440.381159	971.321570	-172.611828	335.372581	856.928602	-28.570335	295.223114	780.409985	-49.225982	221.312138	732.254755	-54.571222	318.178858	763.666629	-75.159661	128.286493	640.394159	-79.836947	53.949624	621.485113	-124.646349	327.088986	473.135275	-111.452502	212.386410	516.278228	-49.417570	246.051715	514.726724	-159.600905	78.426813	962.186367	-464.898723	136.229247	897.999542	-471.834578	169.160563	915.253493	-471.275261	157.185188	812.122454	-458.519044	236.111378	708.759078	-441.559213	246.338248	695.807501	-320.464804	193.776624	542.173931	-462.768482	206.624493	459.579101	-447.172741	174.013976	375.355263	-437.764572	241.155417	458.074314	-428.093690	153.887192	248.297391	-419.071543	93.109661	206.043474	-372.135273	400.476327	183.039260	-354.763179	305.769415	186.981512	-319.323378	284.350958	159.238379	-433.831581	-217.287455	945.428337	-236.452216	-7.992248	83.794920	-437.236160	-13.897019	81.480772	-37.002277	
1002	5.0100	444.976419	1385.351879	-20.216485	466.270420	1434.930180	-341.162636	391.415330	1499.326915	-163.909886	402.640483	1327.277153	-188.051066	504.529066	1148.663639	110.028523	721.844570	987.159388	-2.725477	495.679854	1198.099370	-498.807509	704.367012	983.929092	-459.061340	-109.619105	1196.464015	-253.903989	69.790049	1257.129548	-421.221033	32.484353	1231.034331	-57.599800	90.286130	1179.795152	-385.773215	75.225937	1178.722459	-107.279490	-93.346738	1248.761697	-209.950251	-79.980708	1251.493918	-288.017074	9.727492	1157.264296	-49.732920	9.147192	1108.535522	-444.655863	147.161167	1089.152923	-28.563106	236.036844	1095.526800	-26.822850	314.177371	1059.010981	-27.248388	243.136436	1128.527686	-43.033711	431.280628	997.788181	-43.694094	442.065940	978.282482	-174.854092	338.902234	863.550790	-30.447738	300.157082	786.024300	-50.433726	227.113762	736.633019	-55.307357	324.049793	769.981113	-75.184533	136.158821	641.679624	-79.820307	61.852042	621.317404	-124.356420	337.618253	477.834471	-111.775961	222.336284	518.993152	-49.361335	255.818307	518.184702	-159.611203	78.242387	962.818294	-466.420840	135.803515	898.152755	-473.345286	168.834541	915.193089	-472.515333	156.138705	812.016375	-460.637219	234.385910	708.021769	-443.286994	244.646972	695.273104	-321.911014	189.467065	542.092883	-463.891788	201.178516	459.427197	-448.165029	167.316474	375.716709	-438.313032	235.714347	457.462998	-429.223407	145.575899	248.918261	-419.067789	84.245864	208.118555	-372.007916	391.077155	178.365098	-354.771571	296.414104	184.366782	-319.296262	274.329210	157.148236	-433.831629	-217.300533	945.452185	-236.536391	-8.005855	83.830804	-437.261268	-13.912305	81.539367	-37.017090	
1003	5.0150	442.443616	1385.837958	-17.688262	468.195899	1434.729955	-338.086220	391.170127	1499.541477	-162.133663	402.231530	1327.453391	-185.466191	502.715284	1148.342843	110.391106	721.105749	987.367198	-3.055938	498.091527	1199.108740	-497.211944	705.696494	983.945548	-458.295816	-110.005894	1197.732233	-255.639708	71.039835	1257.026275	-422.117017	31.355965	1232.520463	-58.628828	90.928200	1179.927841	-386.598518	74.080290	1179.836716	-108.295711	-93.705294	1250.076286	-211.789072	-79.539426	1252.482493	-289.836431	9.228545	1160.403264	-50.564632	9.637342	1108.950543	-445.866541	147.129408	1093.369185	-29.863791	236.015165	1100.256336	-28.336885	314.597625	1064.857733	-27.164830	242.887879	1133.189175	-45.107204	431.895385	1004.623125	-46.085045	443.264120	984.880146	-177.650828	342.150471	869.442917	-32.282273	304.923841	791.011662	-51.575501	232.908144	740.171023	-55.907048	329.270665	775.032080	-75.918546	143.867729	642.066529	-79.739148	70.516866	620.336824	-123.607583	348.298630	482.106813	-111.918701	232.311349	521.007816	-49.270687	265.669390	520.861239	-159.529883	78.369408	963.458006	-467.589586	135.738182	898.655106	-474.819945	168.814701	915.568857	-473.728651	155.725037	812.352767	-462.798484	233.389573	707.708086	-445.190837	243.744280	695.164406	-323.519453	185.777399	542.607540	-465.099350	196.163811	459.830385	-449.140423	160.922046	376.667426	-438.811161	230.730431	457.346220	-430.277517	137.332269	250.321055	-419.037239	75.384818	211.016151	-371.913844	381.492066	174.272516	-354.807127	287.053219	182.450947	-319.375247	264.216140	155.776303	-433.739131	-217.343329	945.483980	-236.557721	-8.013964	83.827141	-437.267951	-13.927871	81.550606	-37.004483	
1004	5.0200	440.095942	1386.119010	-15.317353	470.012345	1434.372243	-335.104448	391.013275	1499.568383	-160.504988	401.865391	1327.441415	-183.021963	501.358607	1147.849552	110.813091	720.409669	987.495455	-3.298959	500.565003	1199.996932	-495.735880	706.945192	983.801784	-457.361591	-110.268059	1199.044980	-256.890523	71.966464	1257.104360	-423.021967	30.332953	1234.087619	-59.454761	91.332263	1180.021987	-387.328880	72.972825	1180.865013	-109.216911	-94.262979	1251.543305	-213.168847	-80.042108	1253.497898	-291.099342	8.818968	1163.356912	-51.114090	9.939293	1109.395498	-446.891998	147.047047	1097.415474	-30.976059	235.936148	1104.495520	-30.018753	314.654572	1069.417773	-29.050092	242.606563	1137.393651	-47.165793	433.042969	1010.559020	-48.321312	444.012773	990.784124	-180.378861	345.227288	874.420044	-34.930596	309.588332	795.031128	-52.603596	238.637641	742.668180	-56.386355	334.315585	779.324954	-76.481870	151.714899	641.514809	-79.486517	77.773668	618.229342	-123.428908	358.979381	485.697048	-112.136639	242.392465	522.186170	-49.138547	275.499490	522.890988	-159.445076	78.732240	964.326731	-468.600838	136.027104	899.595998	-476.257731	169.212280	916.201329	-474.466642	155.935976	813.086216	-464.922067	233.189481	707.886304	-447.246143	243.648355	695.443005	-325.288452	182.744507	543.611783	-466.399462	191.691701	460.745319	-450.109679	154.962091	378.314613	-439.402444	226.224652	457.714404	-431.296149	129.238514	252.305823	-418.949746	66.411475	214.808878	-371.927642	371.754510	170.866527	-354.874177	277.619130	181.258803	-319.356776	254.088255	155.123554	-433.650512	-217.383222	945.492621	-236.560492	-8.038159	83.874669	-437.248356	-13.953535	81.554402	-37.012403	
1005	5.0250	437.885071	1386.330468	-13.143106	472.454509	1434.266846	-331.991496	390.916032	1499.520169	-158.919176	402.119332	1327.420024	-180.831778	499.229500	1147.394967	111.106659	719.775204	987.657949	-3.420216	503.431140	1200.913956	-494.569627	708.182929	983.688212	-456.281766	-110.522644	1200.504310	-257.981438	72.888300	1257.243571	-423.910442	29.366821	1235.603707	-60.177823	91.578365	1180.095702	-388.117849	71.904701	1181.805869	-110.041644	-93.982525	1252.799091	-214.498508	-79.747935	1254.309912	-292.333429	8.349438	1166.154666	-51.409033	10.075212	1109.887903	-447.768230	146.880277	1100.919311	-31.917915	235.754640	1108.125736	-31.698047	314.557493	1073.178099	-30.859717	242.232954	1140.941295	-49.074853	433.214154	1015.855730	-50.737655	444.394767	995.986562	-183.026787	347.868232	878.486012	-36.887766	313.938184	798.048160	-53.555564	244.244203	744.057895	-56.687585	339.207646	782.413174	-76.926528	159.385197	640.020613	-79.247071	85.723080	614.924680	-123.076028	369.621114	488.649481	-112.217807	252.361930	522.618868	-49.022369	285.327356	524.136614	-159.389366	79.285183	965.323966	-469.579870	136.767402	900.809761	-477.535132	169.857413	917.484306	-475.427526	156.837879	814.226902	-466.964424	233.866811	708.555667	-449.267169	243.615353	696.305562	-327.488745	180.455017	545.226735	-467.681969	187.784867	462.259274	-451.116549	149.519057	380.575993	-439.997727	222.254644	458.685281	-432.275270	121.396443	255.179740	-418.915224	58.047830	219.353510	-371.646809	362.087468	168.021983	-354.795992	268.102839	180.566083	-319.233096	243.976702	155.229580	-433.582520	-217.411430	945.496516	-236.545947	-8.057879	83.870020	-437.246871	-13.955212	81.562813	-36.996430	
